<?xml version="1.0" encoding="UTF-8" standalone="no"?>
<!-- Created with Inkscape (http://www.inkscape.org/) -->

<svg
   width="210mm"
   height="297mm"
   viewBox="0 0 210 297"
   version="1.1"
   id="svg5"
   xml:space="preserve"
   inkscape:version="1.2.2 (b0a8486541, 2022-12-01)"
   sodipodi:docname="drawing.svg"
   xmlns:inkscape="http://www.inkscape.org/namespaces/inkscape"
   xmlns:sodipodi="http://sodipodi.sourceforge.net/DTD/sodipodi-0.dtd"
   xmlns="http://www.w3.org/2000/svg"
   xmlns:svg="http://www.w3.org/2000/svg"><sodipodi:namedview
     id="namedview7"
     pagecolor="#ffffff"
     bordercolor="#666666"
     borderopacity="1.0"
     inkscape:showpageshadow="2"
     inkscape:pageopacity="0.0"
     inkscape:pagecheckerboard="0"
     inkscape:deskcolor="#d1d1d1"
     inkscape:document-units="mm"
     showgrid="false"
     inkscape:zoom="0.4204826"
     inkscape:cx="-533.91032"
     inkscape:cy="925.12745"
     inkscape:window-width="1500"
     inkscape:window-height="931"
     inkscape:window-x="0"
     inkscape:window-y="0"
     inkscape:window-maximized="1"
     inkscape:current-layer="layer1" /><defs
     id="defs2" /><g
     inkscape:label="Layer 1"
     inkscape:groupmode="layer"
     id="layer1"><path
       style="fill:#37abc8;stroke-width:1"
       d="m -219.99805,328.27527 c -1.01865,-0.55524 -2.29857,-1.26655 -2.84427,-1.58067 -0.5457,-0.31413 -1.39119,-0.79728 -1.87886,-1.07368 -14.10094,-7.9919 -27.48937,-18.2571 -39.02924,-29.92455 -4.9433,-4.99796 -11.7508,-12.91978 -14.32403,-16.66875 -0.34959,-0.50932 -0.71343,-0.98557 -0.80853,-1.05833 -0.49182,-0.37628 -6.47474,-9.65174 -8.44782,-13.09688 -2.86039,-4.99441 -6.00743,-11.37802 -7.66101,-15.53993 -2.5156,-5.88451 -3.18582,-7.63833 -4.62932,-13.82882 -1.76482,-7.74421 -2.171,-10.35737 -2.40587,-15.47812 -0.41982,-9.15351 1.40049,-17.73173 5.418,-25.5323 5.64061,-10.95206 14.4769,-18.65585 25.81095,-22.5029 7.49138,-2.54275 19.45163,-2.61469 26.9875,-0.16232 7.82754,2.54729 14.37964,6.61221 20.52625,12.73445 1.68505,1.67838 3.67935,3.76598 4.43176,4.63911 l 1.36803,1.5875 1.38567,-1.5875 c 8.36824,-9.58711 16.88614,-15.24763 26.92474,-17.89268 5.69617,-1.50088 14.48996,-1.69922 20.6375,-0.46548 4.9998,1.0034 10.50123,3.34794 15.23898,6.49439 2.02009,1.34158 7.76947,6.25187 7.78862,6.65189 0.005,0.10164 0.55562,0.7801 1.22391,1.50771 2.99155,3.25709 7.09003,10.54809 8.77507,15.61042 2.01193,6.04436 2.55983,9.64411 2.53709,16.66875 -0.0206,6.35769 -0.3983,9.37172 -2.00603,16.00729 -1.68277,6.94528 -3.46038,12.03911 -6.32475,18.12396 -0.75353,1.60073 -1.90186,4.04151 -2.55184,5.42396 -1.40146,2.98076 -2.71041,5.59914 -3.43895,6.87917 -10.46888,18.39359 -24.85159,34.45617 -43.59939,48.69168 -3.30684,2.51094 -13.8629,9.57941 -16.97762,11.36843 -7.02875,4.03714 -8.93353,5.02834 -9.6479,5.02057 -0.34461,-0.004 -1.46,-0.46112 -2.47864,-1.01637 z"
       id="path304"
       sodipodi:nodetypes="sscssssccsssssscsssscssssssssscs"
       inkscape:export-filename="logo.png"
       inkscape:export-xdpi="5.3006611"
       inkscape:export-ydpi="5.3006611" /><path
       style="fill:#ffffff;stroke-width:1"
       d="m -232.77115,409.37562 c -0.13825,-0.13459 -1.14432,-0.30818 -2.23573,-0.38579 -3.21086,-0.22825 -4.87786,-0.46045 -5.14615,-0.71683 -0.13824,-0.13211 -0.75629,-0.24019 -1.37344,-0.24019 -0.61715,0 -1.19568,-0.11906 -1.28562,-0.26458 -0.0899,-0.14553 -0.86384,-0.26459 -1.71979,-0.26459 -0.85595,0 -1.62172,-0.10591 -1.70172,-0.23534 -0.08,-0.12944 -0.59305,-0.31152 -1.1401,-0.40461 -2.3998,-0.40835 -2.72732,-0.48977 -2.86479,-0.7122 -0.08,-0.12943 -0.60765,-0.23535 -1.17256,-0.23535 -0.5649,0 -1.10068,-0.11906 -1.19062,-0.26458 -0.0899,-0.14552 -0.39624,-0.26458 -0.68067,-0.26458 -0.28442,0 -0.75365,-0.11907 -1.04271,-0.26459 l -1.05116,-0.52916 c -0.28906,-0.14553 -0.87735,-0.26459 -1.3073,-0.26459 -0.42995,0 -0.85531,-0.11906 -0.94524,-0.26458 -0.0899,-0.14552 -0.45577,-0.26458 -0.81296,-0.26458 -0.35719,0 -0.85618,-0.10028 -1.10886,-0.22286 -2.29837,-1.11488 -4.42461,-1.89381 -5.16953,-1.89381 -0.51948,0 -0.6085,-0.35507 -0.96181,-3.83646 -0.65676,-6.47149 -3.14939,-12.32824 -7.29435,-17.13903 -3.52365,-4.08967 -7.14496,-6.66019 -13.62437,-9.67104 -1.81901,-0.84525 -4.25979,-2.07955 -5.42396,-2.74288 -1.16417,-0.66333 -2.53338,-1.44101 -3.04271,-1.72818 -5.50402,-3.1033 -14.30184,-8.85537 -18.22883,-11.91813 -2.89292,-2.25625 -5.30367,-4.68782 -5.97534,-6.02693 -1.03699,-2.06745 -3.17559,-5.60575 -5.42894,-8.98215 -1.26253,-1.89177 -4.25342,-6.35661 -6.64642,-9.92187 -8.37985,-12.4849 -10.893,-17.81839 -11.84385,-25.13542 -0.16074,-1.23693 -0.46575,-3.49911 -0.6778,-5.02708 -1.74199,-12.55211 -2.24115,-20.88419 -1.60093,-26.72292 0.90938,-8.29334 3.07414,-11.91204 7.39264,-12.35774 3.66986,-0.37877 6.00257,1.98569 7.89484,8.00226 1.45907,4.63919 2.04155,9.29359 2.04208,16.31745 8.4e-4,11.22629 1.14975,13.75377 16.72853,36.80083 1.72379,2.55016 5.46906,6.2299 8.25222,8.10785 4.00324,2.7012 8.80689,4.46338 12.49917,4.58523 1.73748,0.0573 1.80779,0.0357 1.74682,-0.53835 -0.082,-0.77216 -2.43364,-4.66961 -4.36959,-7.24188 -3.56194,-4.73271 -6.86413,-8.03191 -11.29301,-11.28276 -1.84669,-1.35549 -4.14051,-4.15744 -5.13465,-6.27206 -1.29877,-2.76261 -1.61152,-4.1169 -1.62035,-7.01666 -0.0104,-3.42724 0.39854,-4.92809 1.76631,-6.48196 2.40157,-2.72832 6.54903,-3.2566 10.57362,-1.34681 1.61613,0.7669 6.15865,4.77263 13.05161,11.50929 9.24217,9.03261 13.18598,12.34903 17.72708,14.90701 1.16417,0.65577 4.60576,2.59262 7.64799,4.3041 11.06635,6.22566 15.66927,9.47499 20.93506,14.77865 6.15274,6.19699 8.34835,10.15985 10.68859,19.29186 3.71824,14.5092 4.08227,28.81969 1.21232,47.65753 -0.21977,1.4425 -0.39958,2.72243 -0.39958,2.84427 0,0.30342 -4.33015,0.28178 -4.64344,-0.0233 z m 25.28094,-0.10559 c 0,-0.19265 -0.1761,-1.5321 -0.39133,-2.97657 -1.39431,-9.3574 -1.81129,-14.51587 -1.81637,-22.47003 -0.007,-10.70341 1.15912,-18.75368 4.20927,-29.0628 1.81727,-6.14213 4.84756,-10.80639 10.58182,-16.28769 5.09582,-4.87102 13.32695,-10.31175 24.85515,-16.4291 6.80141,-3.60911 9.5238,-5.8021 20.36765,-16.40691 6.84938,-6.6984 11.47582,-10.78055 13.08145,-11.54248 1.33046,-0.63134 3.42608,-1.14912 4.6509,-1.14912 1.40204,0 3.60743,0.60277 4.71903,1.28977 3.32658,2.05595 4.08772,8.75777 1.61194,14.19326 -1.36221,2.99069 -3.27289,5.31134 -5.93409,7.20734 -4.28806,3.05507 -8.86901,7.92936 -12.36276,13.1544 -1.93289,2.89071 -3.0637,5.07946 -2.82435,5.46673 0.19605,0.31722 2.83084,0.12853 4.86836,-0.34863 3.6362,-0.85155 7.46238,-2.66863 10.60954,-5.03855 2.7137,-2.0435 6.23688,-5.79876 7.81038,-8.32488 0.71034,-1.14038 2.41733,-3.7403 3.79329,-5.77759 5.78585,-8.56667 6.99127,-10.46961 8.46391,-13.36146 1.51796,-2.98087 2.70512,-6.09448 3.22817,-8.46667 0.14438,-0.65484 0.36421,-4.46484 0.48851,-8.46666 0.24753,-7.96969 0.61338,-10.95433 1.87259,-15.27696 1.88195,-6.46039 4.24974,-9.06239 7.942,-8.72759 3.88823,0.35257 6.09962,3.30619 7.2807,9.7244 0.80116,4.35363 0.6216,13.69037 -0.42982,22.34994 -0.60525,4.98486 -1.87914,14.12698 -2.13834,15.34583 -1.08916,5.12172 -4.21903,11.36651 -10.01193,19.97605 -8.2097,12.20145 -10.94468,16.39023 -12.43904,19.05111 -1.09408,1.94815 -2.23548,3.56888 -3.175,4.50833 -4.9043,4.90393 -19.05085,14.02987 -30.30879,19.55218 -2.91172,1.42827 -6.1264,3.16334 -7.14375,3.8557 -7.25365,4.93654 -12.03463,12.1717 -13.47405,20.39059 -0.2273,1.29789 -0.48159,3.04441 -0.56507,3.88115 -0.13896,1.39269 -0.20613,1.52136 -0.79422,1.52136 -0.35333,0 -0.64242,0.11906 -0.64242,0.26458 0,0.14552 -0.23812,0.26458 -0.52917,0.26458 -0.29104,0 -0.52916,0.10554 -0.52916,0.23456 0,0.12901 -0.35719,0.3076 -0.79375,0.39687 -0.43656,0.0893 -1.15094,0.23537 -1.5875,0.32464 -0.43656,0.0893 -0.79375,0.26787 -0.79375,0.39688 0,0.12901 -0.23813,0.23455 -0.52917,0.23455 -0.29104,0 -0.52917,0.11906 -0.52917,0.26459 0,0.14552 -0.1999,0.26458 -0.44423,0.26458 -0.49735,0 -2.09083,0.47133 -2.79332,0.82624 -0.25269,0.12763 -0.81121,0.23209 -1.24116,0.23209 -0.42995,0 -0.85531,0.11906 -0.94524,0.26459 -0.0899,0.14552 -0.39624,0.26458 -0.68067,0.26458 -0.28443,0 -0.78341,0.13766 -1.10886,0.30588 -1.31939,0.68207 -1.54764,0.75245 -2.44022,0.75245 -0.51129,0 -0.92963,0.11906 -0.92963,0.26459 0,0.14552 -0.46922,0.26458 -1.04272,0.26458 -0.57349,0 -1.10817,0.10591 -1.18817,0.23535 -0.08,0.12943 -0.59304,0.31199 -1.14009,0.40566 -2.88409,0.49381 -4.28434,0.71577 -5.36027,0.84965 -0.65484,0.0815 -1.30373,0.25567 -1.44198,0.38709 -0.13824,0.13139 -0.88238,0.23892 -1.65364,0.23892 -0.77126,0 -1.4023,0.11906 -1.4023,0.26458 0,0.15417 -0.87673,0.26458 -2.10105,0.26458 -1.15557,0 -2.17463,0.11907 -2.26457,0.26459 -0.25434,0.41153 -2.51354,0.33451 -2.51354,-0.0857 z"
       id="path302"
       sodipodi:nodetypes="cssssssssssssssssssssssssssssssssssssssssssssssssssccsscsssssssssssssssssssssssssssssssssssssssssssssssssssssssss" /><path
       style="fill:#ffffff;stroke-width:1"
       d="m -293.20732,248.41265 c -2.74759,-0.90346 -4.84155,-3.39552 -5.54083,-6.59426 -0.46795,-2.14053 -0.62884,-6.35568 -0.29072,-7.61683 1.39305,-5.19604 4.81616,-7.93178 9.9247,-7.93178 2.82237,0 5.69786,1.07222 7.1901,2.68108 1.49928,1.61643 2.79652,6.32393 2.32912,8.452 -0.34124,1.55366 -0.37623,1.56119 -7.25676,1.56119 -6.99629,0 -7.09983,0.0252 -6.78617,1.65075 0.29207,1.51359 1.27253,2.89957 2.5148,3.55492 1.82179,0.96107 5.00854,0.82088 8.91032,-0.39198 1.28551,-0.3996 1.69904,-0.004 1.68913,1.6156 -0.0128,2.09147 -0.5584,2.56804 -3.69559,3.22797 -2.77194,0.5831 -6.86951,0.48797 -8.9881,-0.20866 z m 7.90164,-13.25136 c 0.40002,-0.48199 -0.0802,-2.7213 -0.76023,-3.54484 -1.49958,-1.81613 -4.85516,-1.77578 -6.31169,0.0759 -0.81468,1.03571 -1.47449,3.33566 -1.03668,3.61364 0.18225,0.11572 2.01342,0.21222 4.06927,0.21444 2.84958,0.003 3.80955,-0.0823 4.03933,-0.35913 z m 52.53337,13.46568 c -1.702,-0.53776 -3.09542,-1.34359 -3.97286,-2.29755 -1.94241,-2.1118 -2.50577,-3.73009 -2.68524,-7.71344 -0.13028,-2.89182 -0.0871,-3.2914 0.57599,-5.32985 1.49062,-4.58234 5.11581,-7.02208 10.43409,-7.02208 3.80246,0 6.72619,1.26903 8.53411,3.70417 1.37911,1.85757 1.88177,3.7908 1.89185,7.27604 0.01,3.45181 -0.50096,5.52992 -1.86771,7.59645 -0.94791,1.43326 -3.12616,2.99084 -5.06819,3.62406 -1.9704,0.64248 -6.05458,0.72695 -7.84204,0.1622 z m 6.41995,-4.6265 c 0.46712,-0.28481 1.18149,-1.01924 1.5875,-1.63207 0.68574,-1.03506 0.74446,-1.33653 0.82648,-4.24298 0.0701,-2.48538 -0.006,-3.37501 -0.36906,-4.32631 -1.4797,-3.87452 -6.78445,-4.11455 -8.64823,-0.3913 -0.52044,1.03968 -0.59521,1.59312 -0.58976,4.36562 0.007,3.34482 0.36131,4.59827 1.62469,5.74075 1.23406,1.11597 4.12203,1.36818 5.56838,0.48629 z m 37.64756,4.53772 c -5.96947,-1.56032 -9.1238,-6.65385 -9.0293,-14.58024 0.0537,-4.50222 1.16632,-8.03835 3.37094,-10.7133 2.54923,-3.09309 5.42606,-4.38953 9.8917,-4.45768 3.24118,-0.0495 5.77276,0.63643 7.30078,1.97805 0.88301,0.77529 0.9013,0.83393 0.9013,2.88891 0,1.63348 -0.0891,2.13174 -0.40251,2.25202 -0.22138,0.085 -1.40294,-0.3528 -2.62567,-0.97278 -1.85655,-0.94136 -2.54497,-1.1479 -4.17456,-1.25248 -1.71729,-0.11021 -2.11293,-0.0434 -3.29778,0.55703 -1.7755,0.89971 -3.00218,2.38194 -3.79846,4.58979 -0.55947,1.55121 -0.64998,2.26273 -0.64998,5.10946 0,5.03211 1.04397,7.58057 3.75916,9.17658 1.15014,0.67606 1.50143,0.74529 3.78147,0.74529 2.42194,0 2.59198,-0.0398 4.66576,-1.09285 1.35828,-0.68971 2.28144,-1.013 2.5025,-0.87637 0.23819,0.14721 0.35381,0.84775 0.36132,2.1893 0.0126,2.25671 -0.29947,2.7939 -2.09907,3.61294 -2.96508,1.34947 -7.21639,1.69353 -10.4576,0.84633 z m 19.11826,-0.16811 c -2.49226,-1.15537 -3.53555,-2.82298 -3.56721,-5.70186 -0.0308,-2.80261 0.99259,-4.50732 3.49895,-5.8283 1.11768,-0.58907 3.72337,-1.03182 6.12993,-1.04157 3.01457,-0.0122 3.13049,-0.0679 3.13049,-1.50335 0,-1.55205 -0.81034,-3.10152 -1.84648,-3.53071 -1.52223,-0.63052 -4.62939,-0.0823 -7.99341,1.41041 -0.88452,0.39248 -1.01518,0.39441 -1.38907,0.0205 -0.51441,-0.51442 -0.54549,-2.95598 -0.046,-3.61388 0.88589,-1.16681 4.85387,-2.29542 8.09995,-2.30386 4.06718,-0.0106 6.68761,1.17395 7.9375,3.58801 0.65885,1.27252 0.6618,1.3109 0.74754,9.71896 0.0509,4.99539 -0.0147,8.54216 -0.16075,8.68823 -0.13575,0.13575 -0.8991,0.31415 -1.69632,0.39643 -1.59769,0.16489 -2.59216,-0.18601 -2.59869,-0.91697 -0.002,-0.24954 -0.11502,-0.62919 -0.25064,-0.84366 -0.20987,-0.33185 -0.33735,-0.30594 -0.85585,0.17394 -1.38905,1.28561 -2.86983,1.80029 -5.37175,1.86707 -2.04724,0.0547 -2.57579,-0.0266 -3.7682,-0.57941 z m 7.62562,-4.32145 1.43425,-1.00083 0.0771,-1.87795 0.0771,-1.87794 -0.87085,-0.13045 c -1.02956,-0.15422 -4.35071,0.2639 -5.04421,0.63504 -0.7009,0.37511 -1.51304,1.82313 -1.51419,2.69974 -8e-4,0.50563 0.29538,1.05043 0.89859,1.65364 0.77972,0.77973 1.07336,0.89959 2.20377,0.89959 1.0799,0 1.55084,-0.17212 2.73844,-1.00084 z m -154.53763,4.53204 c -2.63817,-0.52387 -4.40288,-1.51551 -4.79127,-2.69234 -0.31321,-0.94904 -0.19096,-3.11054 0.1973,-3.4883 0.12559,-0.1222 1.21248,0.25673 2.41531,0.84206 1.81456,0.88301 2.54599,1.08884 4.29535,1.20875 3.73272,0.25584 5.82081,-1.07008 5.82081,-3.69618 0,-2.10867 -0.69862,-2.79724 -5.04937,-4.97677 -5.7752,-2.89311 -7.19865,-4.59178 -7.20008,-8.59221 -0.002,-4.42415 2.35872,-7.18167 6.91428,-8.07793 2.89638,-0.56982 7.77115,0.21847 9.00962,1.45694 0.43312,0.43312 0.50836,3.73906 0.0945,4.15291 -0.1414,0.14139 -0.98328,-0.11337 -2.0698,-0.62634 -1.49009,-0.70351 -2.22597,-0.88157 -3.94812,-0.95533 -1.87391,-0.0803 -2.22287,-0.0189 -3.0427,0.53517 -1.0649,0.71967 -1.76955,2.36079 -1.49069,3.47183 0.3221,1.28335 1.56899,2.25193 5.19485,4.03536 4.33579,2.13261 5.54729,3.07447 6.53015,5.07674 0.63535,1.29433 0.74306,1.83075 0.72993,3.63506 -0.0268,3.68482 -1.74921,6.33431 -5.12882,7.88952 -1.5659,0.72058 -2.02996,0.80464 -4.77709,0.86526 -1.67349,0.0369 -3.34037,0.008 -3.70417,-0.0642 z m 42.46563,-0.005 c -0.29104,-0.0813 -0.61664,-0.28284 -0.72356,-0.4479 -0.27854,-0.43006 -0.24112,-20.59922 0.039,-21.04166 0.25607,-0.40439 3.60419,-0.56363 4.19344,-0.19945 0.18015,0.11133 0.32754,0.66462 0.32754,1.22953 0,0.5649 0.11512,1.09825 0.25581,1.1852 0.14069,0.087 0.90568,-0.37123 1.69996,-1.01818 1.77934,-1.44929 3.85855,-2.11752 6.114,-1.96493 2.68574,0.1817 4.33191,1.28301 5.65045,3.78025 l 0.69957,1.32495 0.083,8.40068 0.0829,8.40068 -0.7444,0.28953 c -0.76881,0.29902 -4.18871,0.18996 -4.52417,-0.14426 -0.10394,-0.10357 -0.24852,-3.42315 -0.32128,-7.37685 -0.14997,-8.14899 -0.25226,-8.58303 -2.24588,-9.52939 -0.90597,-0.43006 -1.1546,-0.44755 -2.06954,-0.14559 -0.57193,0.18875 -1.6804,0.9489 -2.46327,1.68921 l -1.42339,1.34602 v 6.91989 c 0,4.88133 -0.0886,6.97463 -0.30066,7.1057 -0.38967,0.24083 -3.64226,0.3885 -4.32955,0.19657 z m 24.80469,-0.0786 -0.59532,-0.25547 v -10.42725 c 0,-8.83135 0.0593,-10.47636 0.38731,-10.7486 0.44596,-0.37012 3.3647,-0.50243 4.44134,-0.20134 l 0.7276,0.20348 v 10.56268 c 0,7.75167 -0.082,10.61335 -0.30813,10.75311 -0.4964,0.30679 -4.00296,0.39219 -4.6528,0.11331 z m 36.46964,-0.20638 c -0.56124,-0.46034 -0.56409,-0.52346 -0.49233,-10.91084 l 0.0722,-10.44783 1.19225,-0.17049 c 0.65573,-0.0938 1.66776,-0.0937 2.24895,5e-5 1.04474,0.16859 1.05763,0.18473 1.13736,1.42404 0.0443,0.68943 0.18838,1.25352 0.32006,1.25352 0.13168,0 0.69071,-0.48856 1.24227,-1.08567 1.32176,-1.43091 2.661,-2.08934 4.24972,-2.08934 1.90903,0 2.44168,0.60454 2.44168,2.77121 0,2.27909 -0.34598,3.17218 -1.1292,2.9148 -0.32483,-0.10675 -1.07164,-0.24915 -1.65958,-0.31644 -0.91519,-0.10475 -1.22437,0.005 -2.1489,0.75977 -0.59395,0.48517 -1.36306,1.28972 -1.70914,1.7879 -0.61164,0.88047 -0.63292,1.09089 -0.76152,7.52907 l -0.13229,6.62329 -0.66146,0.18362 c -1.35929,0.37733 -3.6222,0.25551 -4.21004,-0.22666 z m 64.33058,0.0303 -0.60133,-0.4933 0.0722,-10.45103 0.0722,-10.45105 h 2.24896 2.24895 l 0.0764,0.92605 c 0.14383,1.74472 0.25153,1.76728 1.71946,0.36012 0.75856,-0.72716 1.71222,-1.46284 2.11925,-1.63486 1.02471,-0.43307 2.70672,-0.39104 3.63871,0.0909 0.76452,0.39535 0.78061,0.44676 0.78061,2.49464 0,2.43489 -0.35813,3.07505 -1.48138,2.64799 -1.44954,-0.55112 -2.35927,-0.31835 -3.79267,0.9704 -2.15702,1.93934 -2.13428,1.8428 -2.13428,9.06495 0,4.5444 -0.0875,6.40163 -0.30814,6.53797 -0.16947,0.10474 -1.15174,0.24445 -2.18281,0.31047 -1.55452,0.0995 -1.97738,0.0358 -2.47602,-0.37326 z m 21.30391,0.16195 c -2.86102,-0.72168 -5.0096,-2.5677 -6.03444,-5.18469 -0.92166,-2.35352 -1.05302,-7.49641 -0.25264,-9.89097 1.50325,-4.49735 4.13992,-6.55414 8.73808,-6.81631 4.92827,-0.281 8.27127,1.75284 9.4376,5.74172 0.57635,1.97113 0.62902,5.7605 0.0849,6.10646 -0.22184,0.14103 -3.10033,0.2541 -6.52679,0.25637 -3.37146,0.002 -6.31826,0.0763 -6.54844,0.16465 -0.58662,0.2251 -0.53561,2.06943 0.0957,3.45992 0.31643,0.69696 0.91984,1.38296 1.62911,1.85208 1.05872,0.70026 1.29487,0.74478 3.92337,0.73964 2.18536,-0.004 3.19014,-0.1361 4.59567,-0.60297 0.98935,-0.32863 1.91208,-0.5275 2.05052,-0.44194 0.4246,0.26242 0.30043,2.94822 -0.15747,3.40613 -0.79887,0.79887 -3.06962,1.26862 -6.60228,1.36582 -1.89177,0.0521 -3.88655,-0.0181 -4.43285,-0.15591 z m 7.05704,-12.85438 c 0.48606,-0.18652 0.53591,-1.12584 0.13613,-2.56549 -0.80416,-2.89587 -4.57966,-4.04803 -6.89123,-2.10298 -1.31835,1.10933 -2.32982,3.96869 -1.64583,4.65268 0.22047,0.22046 7.83028,0.23477 8.40093,0.0158 z m -129.32955,-12.57883 c -1.24606,-1.07181 -1.19428,-3.90171 0.0899,-4.9132 0.23118,-0.18209 1.22203,-0.32597 2.27754,-0.33073 1.49626,-0.007 1.97896,0.0947 2.42381,0.50909 0.69026,0.64307 0.9652,1.82372 0.73795,3.16885 -0.25615,1.51613 -0.91075,1.96891 -3.01874,2.08802 -1.57593,0.089 -1.8715,0.0276 -2.51047,-0.52203 z"
       id="path478"
       sodipodi:nodetypes="ssssssssssssssssscssssssssssssssscscssssssssssssssssssssssssssssssssssscsssssscccsscsssssssssscssssssssssssssssssssssscccsssssscssssccssscssccsscscssssssscsscssscccccccsssssssssccssssssccsscsssssssssssssscsssss" /></g></svg>
